<?xml version="1.0" standalone="no"?>
<!DOCTYPE svg PUBLIC "-//W3C//DTD SVG 20010904//EN"
 "http://www.w3.org/TR/2001/REC-SVG-20010904/DTD/svg10.dtd">
<svg version="1.0" xmlns="http://www.w3.org/2000/svg"
 width="368.000000pt" height="332.000000pt" viewBox="0 0 368.000000 332.000000"
 preserveAspectRatio="xMidYMid meet">

<g transform="translate(0.000000,332.000000) scale(0.100000,-0.100000)"
fill="#fff" stroke="none">
<path d="M1705 3235 c-435 -101 -746 -444 -796 -874 -16 -143 3 -345 40 -426
5 -11 19 -45 30 -76 72 -202 283 -425 496 -524 150 -69 270 -95 443 -95 209 0
381 54 552 171 100 68 228 189 254 240 9 19 30 52 46 74 28 39 91 175 95 205
1 8 6 27 13 41 6 15 14 44 17 65 4 22 9 47 12 57 3 12 -1 17 -15 17 -30 0 -43
-21 -27 -44 14 -19 10 -46 -7 -46 -6 0 -7 7 -4 16 4 9 1 23 -5 31 -9 10 -9 20
2 39 10 20 19 25 42 21 36 -5 44 9 19 36 -25 28 -14 64 23 73 32 8 32 28 0 42
-31 14 -33 48 -3 71 22 18 18 41 -7 41 -9 0 -16 15 -20 38 -11 67 -45 168 -85
251 -129 266 -351 454 -641 541 -95 29 -378 38 -474 15z m401 -299 c107 -31
158 -38 261 -34 l107 3 9 -45 c4 -25 6 -63 4 -86 -4 -41 -4 -41 53 -72 l57
-31 20 27 20 27 16 -30 c11 -21 31 -36 69 -50 38 -15 54 -27 56 -42 2 -11 12
-23 23 -26 10 -3 19 -13 18 -24 0 -10 -3 -13 -6 -5 -6 15 -35 16 -51 0 -19
-19 -62 6 -62 37 0 30 -25 34 -39 6 -20 -36 -65 -36 -76 0 -9 29 -32 23 -38
-10 -8 -37 -38 -48 -71 -26 -28 18 -40 8 -31 -27 9 -35 -25 -64 -55 -48 -32
17 -46 -1 -25 -33 23 -35 6 -67 -35 -67 -35 0 -40 -19 -10 -38 29 -18 26 -60
-5 -72 -34 -13 -32 -36 4 -43 37 -8 48 -43 21 -72 -24 -26 -17 -35 26 -35 37
0 45 -14 37 -65 -5 -32 -4 -35 13 -29 11 4 24 11 30 16 26 20 68 -31 50 -61
-13 -21 18 -23 35 -3 26 33 65 29 78 -8 5 -16 15 -30 21 -30 6 0 16 14 21 30
13 36 42 40 76 9 24 -24 29 -19 35 30 4 31 33 50 49 34 28 -28 -65 -210 -167
-324 -24 -27 -44 -56 -44 -64 0 -7 14 -16 31 -20 32 -7 34 -21 6 -39 -11 -7
-29 -7 -61 2 -60 16 -97 2 -161 -58 -79 -73 -100 -83 -160 -76 -34 4 -67 1
-92 -8 -51 -18 -91 -11 -95 17 -2 15 -13 23 -37 28 -18 4 -41 14 -50 24 -15
15 -10 22 70 98 284 269 379 361 379 369 0 5 -4 6 -10 3 -5 -3 -19 -1 -31 6
-18 9 -21 17 -16 50 4 29 2 39 -9 39 -21 0 -114 -92 -111 -109 1 -8 -7 -17
-18 -19 -22 -5 -46 -26 -215 -192 -64 -63 -148 -146 -187 -184 l-71 -68 -53 7
-54 8 193 187 c183 177 192 188 183 213 -6 15 -19 27 -33 29 -13 2 -27 13 -33
25 -9 21 -19 12 -160 -126 -82 -81 -180 -176 -217 -210 -42 -40 -68 -72 -70
-88 l-3 -26 -44 34 c-25 19 -45 39 -47 44 -1 6 153 160 342 344 190 184 342
337 338 340 -3 3 -18 6 -32 6 -34 0 -56 39 -40 69 10 20 -34 -21 -312 -290
-170 -165 -417 -394 -424 -394 -3 0 -6 4 -6 10 0 14 -70 110 -80 110 -5 0 -24
14 -42 30 -18 17 -36 30 -40 30 -5 0 -8 6 -8 13 0 6 -15 22 -33 33 -33 22 -86
104 -67 104 6 0 10 33 10 85 0 96 13 138 60 191 38 44 39 89 4 149 -21 37 -24
51 -19 89 4 26 2 59 -5 80 -15 46 6 79 66 105 24 11 44 24 44 28 0 4 -7 33
-15 63 -8 30 -15 61 -15 68 0 19 44 14 68 -9 27 -24 54 -19 88 18 32 35 95 41
155 15 25 -11 57 -18 70 -15 20 3 28 -3 44 -34 15 -29 39 -49 100 -84 62 -35
81 -51 83 -70 3 -26 -29 -69 -52 -69 -8 0 -19 -6 -25 -14 -10 -12 -4 -15 36
-19 26 -2 71 -13 98 -23 72 -28 91 -22 104 31 16 65 14 100 -9 120 -21 19 -27
60 -10 70 6 4 8 22 5 43 -12 78 -15 74 47 87 32 6 61 14 64 18 11 11 37 8 90
-7z m615 -448 c84 -47 129 -119 129 -208 0 -74 -23 -124 -80 -173 -146 -125
-370 -19 -370 175 0 131 115 235 246 224 28 -2 62 -10 75 -18z"/>
<path d="M2118 2483 c-7 -15 -22 -29 -33 -31 -44 -7 -48 -12 -24 -31 21 -17
22 -22 12 -40 -20 -33 -16 -43 18 -39 23 2 35 -3 48 -21 l18 -24 14 29 c10 20
22 29 38 29 30 0 37 17 16 35 -17 14 -20 46 -5 55 20 12 10 27 -14 21 -30 -7
-56 2 -56 19 0 27 -19 25 -32 -2z m53 -64 c9 -17 8 -25 -4 -37 -29 -28 -73 12
-47 43 17 21 37 19 51 -6z"/>
<path d="M2080 2201 c0 -26 -22 -41 -49 -34 -22 5 -23 4 -16 -25 6 -28 3 -33
-19 -42 -28 -10 -35 -30 -11 -30 23 0 37 -36 20 -50 -24 -20 -17 -30 20 -30
32 0 35 -2 35 -30 0 -33 11 -38 30 -15 17 20 26 19 49 -7 22 -23 20 -24 36 27
3 9 17 15 35 15 26 0 29 3 21 18 -13 24 4 52 32 52 21 1 21 2 -5 21 -31 23
-35 41 -13 59 19 16 9 33 -16 25 -26 -9 -48 11 -42 35 6 24 4 24 -33 5 -27
-14 -30 -14 -43 5 -17 25 -31 26 -31 1z m79 -66 c47 -24 56 -78 19 -112 -30
-28 -57 -32 -90 -16 -50 24 -48 105 2 130 32 16 35 16 69 -2z"/>
</g>
</svg>
